<svg xmlns="http://www.w3.org/2000/svg" viewBox="0 0 193.92 150.34"><defs><style>.cls-1{fill:#00ffce;}</style></defs><g id="Слой_2" data-name="Слой 2"><g id="Слой_1-2" data-name="Слой 1"><circle class="cls-1" cx="75.17" cy="107.85" r="9.8"/><path class="cls-1" d="M40.31,2.18H151.43a7.63,7.63,0,0,1,7.63,7.62h0a7.63,7.63,0,0,1-7.63,7.63H40.31A7.63,7.63,0,0,1,32.68,9.8h0A7.63,7.63,0,0,1,40.31,2.18Z"/><path class="cls-1" d="M7.63,34.86H70.81a7.64,7.64,0,0,1,7.63,7.63h0a7.63,7.63,0,0,1-7.63,7.62H7.63A7.62,7.62,0,0,1,0,42.49H0A7.63,7.63,0,0,1,7.63,34.86Z"/><path class="cls-1" d="M103.49,98.05h63.19a7.63,7.63,0,0,1,7.63,7.62h0a7.63,7.63,0,0,1-7.63,7.63H103.49a7.62,7.62,0,0,1-7.62-7.63h0A7.62,7.62,0,0,1,103.49,98.05Z"/><path class="cls-1" d="M40.31,65.37h95.87A7.62,7.62,0,0,1,143.8,73h0a7.63,7.63,0,0,1-7.62,7.63H40.31A7.64,7.64,0,0,1,32.68,73h0A7.63,7.63,0,0,1,40.31,65.37Z"/><path class="cls-1" d="M44.67,132.91h91.51a7.62,7.62,0,0,1,7.62,7.63h0a7.62,7.62,0,0,1-7.62,7.62H44.67A7.62,7.62,0,0,1,37,140.54h0A7.62,7.62,0,0,1,44.67,132.91Z"/><circle class="cls-1" cx="184.11" cy="9.8" r="9.8"/><circle class="cls-1" cx="99.14" cy="42.49" r="9.8"/><circle class="cls-1" cx="9.8" cy="140.54" r="9.8"/></g></g></svg>